<mxfile host="app.diagrams.net" modified="2023-04-25T13:46:06.156Z" agent="Mozilla/5.0 (Windows NT 10.0; Win64; x64) AppleWebKit/537.36 (KHTML, like Gecko) Chrome/112.0.0.0 Safari/537.36" version="21.2.1" etag="15hloaQnoK5P5dxe4qnC" type="github">
  <diagram name="ページ1" id="zQC-GDe7Nns2nsZPz8OO">
    <mxGraphModel>
      <root>
        <mxCell id="0" />
        <mxCell id="1" parent="0" />
      </root>
    </mxGraphModel>
  </diagram>
</mxfile>
